<svg xmlns="http://www.w3.org/2000/svg" xml:space="preserve" viewBox="0 0 2247.4 440.1">
  <path d="M1431.2 198.2c-8.3 0-17.1 1.9-22.8 4.1v105.1c4.4 1.4 12.7 2.5 21 2.5 29.8 0 47.3-20.7 47.3-57.2.1-34.7-16.6-54.5-45.5-54.5m-6.5 158.5c-35.1 0-68.8-6.5-88.5-14.1V65.9h72.3v93c9.2-3.3 25-5.8 37.2-5.8 61.4 0 103.4 34.2 103.4 94.4 0 73.9-44.3 109.2-124.4 109.2m268.9-94.9c-38.9 1.6-68.3 5.2-68.3 28.6 0 16 16.2 24.8 42 24.8 10.1 0 21.5-1.4 26.3-3v-50.4zm-24.1 94.9c-74.4 0-111.2-22.9-111.2-64.9 0-52.2 64-64.3 135.4-67.5v-7.7c0-15.7-13.1-23.1-37.7-23.1-22.8 0-49.9 6.3-67 12.1l-17.6-40.2c21-6.9 50.3-15.6 93.4-15.6 64.4 0 96.8 21.7 96.8 74v118.8c-18 7.5-54.4 14.1-92.1 14.1m252.4-4.4V224.6c0-16.5-9.3-27.3-35.1-27.3-13.5 0-25.4 5-25.4 5v150h-72.3V165.4c26.4-8.5 57.4-15.6 98.6-15.6 74.1 0 106.5 25 106.5 67.9v134.6h-72.3zm244.9 0-72.3-98.2h-.9v98.2h-71.4V65.8h71.4V240h.9l65.3-84.4h81.5l-73.6 91.6 79.7 105.1h-80.6zm-966.7 78.6h-75.8l35.5-78.6-88.9-196.7h78.6l48 139.7 47.5-139.7h78.7l-123.6 275.3zm-376-342.8h-84.2l-55.6 163.2-55.6-163.2h-84.2l-38.1 264.2h68.8l21.9-181.6 64.4 181.6H707l64.4-181.6 21.9 181.6h68.8l-38-264.2zm182.6 173.7c-39 1.6-68.4 5.2-68.4 28.6 0 16 16.2 24.8 42.1 24.8 10 0 21.4-1.4 26.3-3v-50.4zm-24.1 94.9c-74.5 0-111.3-22.9-111.3-64.9 0-52.2 64-64.3 135.4-67.5v-7.7c0-15.7-13.1-23.1-37.7-23.1-22.8 0-50 6.3-67 12.1l-17.6-40.2c21-6.9 56.5-15.6 93.4-15.6 64.4 0 96.8 21.7 96.8 74v118.8c-17.9 7.5-54.3 14.1-92 14.1m-762.5 65.7c-111.8 0-202.4-90.6-202.4-202.4 0-111.8 90.6-202.6 202.4-202.6 111.8 0 202.4 90.8 202.4 202.6s-90.6 202.4-202.4 202.4m0-422.4C98.5 0 0 98.5 0 220c0 121.6 98.5 220.1 220.1 220.1S440.2 341.6 440.2 220c0-121.5-98.5-220-220.1-220" class="st0"/>
  <path d="M132.3 210c-15.8-4-29.6 14.4-37.3 28.3 2.7-19.1 26.1-50.3 37.3-28.3m-34.6.2c5.3-18.1 17.8-24.7 24.5-19.4-9.1 2.8-15.7 8.2-24.5 19.4m40.2 29c8.1-6.8 7.3-16.9-5.3-20.3-9.3-2.4-29.4 14.5-31.5 33 8-10.3 31.2-29.2 36.8-12.7m126.3 48.2c1.4-23.8-21.7-34.9-26.1-59.4-4.3-24.4 36.1-63.5 10.6-103.4 48.3 38.9 10.5 62 34.8 94.4-9.5-2.9-18.8-11.2-21.6-15.6-13.6 17.8 33.2 42.4 2.3 84M186.5 95.3c5.7 0 15.5 4.1 11.5 8.7-13.4 12.5-31.5 7.3-45.8 20 5.9-15.7 32.1-17.9 34.3-28.7" class="st0"/>
  <path d="M170 147.9c-1.7 0-3.3-2.4-3.8-5.6 2.3 5.8 8.1 3 4.8-5.4 2.1 0 5.3.3 11.4 0-6.4 3.3-9.2 11.1-12.4 11m59.9-34.9c5.6-6.3.5-14.9-22.5-17.8 24 11.6-14.6 14.2-15.9 34.4-12.6 4.9-22.6-3.3-28.9 2.4-6 5.5-13 1.7-11-4.6-7.3 3.7-5.8 13.6 1.3 16.7 1.4.6 2.6 1.9 1.6 2.9-7.7 7.3-11.4 13.7-3.3 20.9 4.4-8.1 6.7-11.1 11.6-15 4.6 3 12.8.9 23.7-11 .5-.7 1.3-.4 1 .3-8.7 30-30.9 34.8-38.1 33.4 4.3 6.5 32.6 10.4 36.1-2.2 8-28.5 35.5-40.9 11.8-40.4 6.5-7.6 28-14.6 32.6-20m12-15.4c11.5 7.4 16.9 12.3 24.4 21.2 1.4-12.2-5.5-36.2-15.7-41.8-4.5-2.3-10.8 14.5-8.7 20.6" class="st0"/>
  <path d="M58.7 195.4c7.4-19.5 25.4-42.8 54.7-60.1 6.7-17.4 4.5-29.2 75.3-56.7 1.8-10.4 1.5-23 4.4-23 3 0 13.5 4.7 21 15.4 3.1-.2 5.8-.6 7.7-.9 1.3-6.1 5.5-22.8 11.1-31.4 5.1-8 14.9-8.8 27.6 1.7C273.6 51 282.9 55.5 301 78.6c15.3 6.8 39.2 15.6 59.8 41-9-6-19.2-8.2-27.5-9.1 16.9 14.8 28 39.2 19.6 74.8C349.5 152 325 138 310 127.4c8.1 28.1-27.1 18.3-37.9-2.8 3.6 1.1 7.2 1 9.5-.4-1.2-43-21.4-67.7-30.4-75.1-11.6-9.6-17.8 13.5-21.7 30.7-1.2 5.8-6.2 9.9-12.4 9.7 1.4-2.1 3-7.7 3.2-9.5-17.8 1.5-37.9 12-50.2 17.5-31.3 14.2-39.2 21.2-46.1 45-24.7 10.6-53.4 39.2-65.3 52.9" class="st0"/>
  <path d="M214.9 189.3c3.5 4 24.1 35.2.2 74.8 6.5-29.2-11.6-85-31.7-56.4 13.6 5.9 18.1 17 14.4 27.8-5.6-10.5-19.7-21.7-33.8-17.1-7 2.5-16.3 2.6-23.2-7.8-9-13.1 6.1-29.5-19.7-28.2 31.2-15.8 22.2 14.9 37.3 18.7 17.5 4.1 19.6-6.6 25.6-13.6 4.8-5.9 13.8-10.4 23.2-4.1 4.5-13.6-2.1-35.3 10.7-46.7 4.7-4.2 19.8-3.6 27.6 2.5-11.1-.2-24.1 13-30.6 50.1" class="st0"/>
  <path d="M143.5 315.3c-1.5-1.2-5.6-6.6-5.3-12.4 5.3 3.4 12.4 5.1 12.4 5.1s-3.3 5.7-7.1 7.3m31.4-34.4c3.1.5 5.8 3 8.6.9s-.1-10.4-2.3-13.2c2.7-.5 13.6.6 13.1 4.5-1.3 10.4-7.7 13.6-23.3 21.1 2.7-2.4 2.2-7.9 3.9-13.3m-62.2-8.3c1.3-3.2 7.3-7.3 10-7.6-1.1 9 2.2 21.2 2.2 21.2s-12.1-7.7-12.2-13.6M73 232.8c-5.7-4-14.6-13.3-15.5-16.6 1.1-1.3 5.9-6.4 11.9-8.1 4.4-1.1 7.3 1.3 6.6 2.6-.6 1.6-4.5 1.6-5.7 4.9-1.8 5.1 3.9 6.7 5.1 9 .7 1.5 2.3 5.3-2.4 8.2m301.7-98c15.9 55.5 11.5 109-5 141 2.1-20-15.5-49.3-8.5-83.5C328 224.6 380 303.9 304.5 356c11.3-18.2 16.4-63.3 12.4-79.8 4 1.7 8.1 6.6 10.7 10.8 6.2-20.8 7-50.1-4.8-79.9 4.1.6 12.6 4.3 16.5 7.9 1.9-45.9-31.7-49.3-38-61.7 0 13.4 15.7 24.7 18.5 42.2-11-5.2-19-5.7-24.7-5.2 8.5 6.2 27.4 42.8 21.8 72.1-8.1-6.8-15.7-10-23.8-10.7 10 15.2 14.1 54.9 1.6 73.2-.3-4.1-1.8-16.1-6.5-21-5.9 22.3-23.3 31.6-35.2 34.4 14.8-15.5 11.9-42.9-9.7-50.2-19.5-6.7-44.3 6.6-54.3 53-14 4.2-56.3-4.8-31-32.2 15.4 5.2 54.5-20.9 51.9-39.3-3.8-25.6-27.1-34.6-45.6-34.4-22.9.4-38.3 21.7-57 30.9-15.6-2.3-20.9-4.5-28.8-25.4-1-12.6 12.5-21.6 12.3-34.7-11.1 2.3-13.8-14.4-35.5 3-1.7-3.2 1.2-10.6 1.2-10.6-8 7.3-9.5 15.8-9.7 17.6 3.9 7.7 9.4 14.7 20 21.6 12.8 34.1 25.8 37.9 39.3 39.2 2.3 3.2 12.3 15.2 25 17.1-2.2-6.4-2.5-24.4-1.2-29 27.7-27.7 48.2-10.9 50.9-3.5-24.6 5-7.2 57.5-48 34.1-1.6 5.4.6 18.8 5.8 26.6 4.2 35.9 49.4 27.2 63.5 33.4-1.6-34.9 17.8-60.4 34.4-58.3 16.7 2.1 21 29.3-7.4 55 7 3.8 37.5-1.4 53-12.6 1.4 8.9-10.1 35.1-24.3 53.7 119.5-27.6 172.9-157.2 116.9-258.5" class="st0"/>
</svg>